<svg xmlns="http://www.w3.org/2000/svg" width="80" height="80" stroke="none" stroke-linecap="round" stroke-linejoin="round" fill="#fff" fill-rule="evenodd"><path fill="#f7df1e" d="M0 0h79.370079040527v79.370079040527H0z"/><path d="M35.716546248817 62.503962438393v-25.7953h6.9449v25.7953c0 9.9212-13.8898 15.874-21.8268 3.9685l5.9528-3.9685c2.9763 5.9527 8.9291 3.9685 8.9291 0zm29.763739313984-16.866093726745c-3.9685-5.4567-8.9291-2.9764-8.9291.496 0 5.4567 16.3701 4.4646 16.3701 16.3701-.4961 13.8898-19.8425 13.3937-25.7953 2.9764l5.9528-3.4725c4.4645 6.9449 12.4015 4.4646 12.4015.4961-.496-6.9449-15.874-3.4724-15.874-16.3701-.496-9.9212 14.3858-15.3779 21.3307-3.9685l-5.4567 3.4725" fill="#323232"/></svg>